<?xml version="1.0" encoding="iso-8859-1"?>
<!-- Uploaded to: SVG Repo, www.svgrepo.com, Generator: SVG Repo Mixer Tools -->
<!DOCTYPE svg PUBLIC "-//W3C//DTD SVG 1.1//EN" "http://www.w3.org/Graphics/SVG/1.1/DTD/svg11.dtd">
<svg fill="#000000" height="800px" width="800px" version="1.1" id="Capa_1" xmlns="http://www.w3.org/2000/svg" xmlns:xlink="http://www.w3.org/1999/xlink" 
	 viewBox="0 0 459.256 459.256" xml:space="preserve">
<path d="M456.574,224.852L394.1,185.452c-2.255-1.428-5.478-1.201-7.516,0.526l-31.485,26.714H168.411
	c-0.503-0.48-1.031-0.918-1.586-1.293l-31.645-21.382c-3.085-2.084-8.219-3.655-11.941-3.655H69.244
	c-3.16,0-5.757,1.382-7.126,3.792c-0.732,1.288-1.018,2.728-0.891,4.203H40.873c-3.16,0-5.758,1.382-7.126,3.792
	c-0.796,1.401-1.065,2.981-0.846,4.591H8.06c-3.16,0-5.757,1.382-7.126,3.792c-1.369,2.409-1.226,5.349,0.393,8.063l7.922,13.286
	c0.463,0.777,0.463,2.688,0,3.466l-7.922,13.285c-1.618,2.715-1.761,5.654-0.392,8.063c1.369,2.41,3.966,3.792,7.126,3.792h24.841
	c-0.219,1.61,0.05,3.19,0.846,4.591c1.369,2.41,3.966,3.792,7.126,3.792h20.541c-0.439,1.873-0.219,3.737,0.703,5.359
	c1.369,2.41,3.966,3.792,7.126,3.792h53.995c3.724,0,8.858-1.572,11.942-3.657l31.645-21.38c0.555-0.375,1.083-0.813,1.586-1.293
	h188.051l30.125,25.56c1.133,0.961,2.6,1.489,4.13,1.489c1.215,0,2.385-0.333,3.377-0.961l62.477-39.401
	c1.681-1.059,2.685-2.84,2.685-4.765S458.253,225.908,456.574,224.852z"/>
</svg>