<?xml version="1.0" encoding="utf-8"?>
<!-- Generator: Adobe Illustrator 27.5.0, SVG Export Plug-In . SVG Version: 6.00 Build 0)  -->
<svg version="1.1" xmlns="http://www.w3.org/2000/svg" xmlns:xlink="http://www.w3.org/1999/xlink" x="0px" y="0px"
	 viewBox="0 0 500 500" style="enable-background:new 0 0 500 500;" xml:space="preserve">
<g id="BACKGROUND">
	<radialGradient id="SVGID_1_" cx="250" cy="250" r="303.4585" gradientUnits="userSpaceOnUse">
		<stop  offset="0" style="stop-color:#FFFFFF"/>
		<stop  offset="0.3287" style="stop-color:#FCFCFD"/>
		<stop  offset="0.5871" style="stop-color:#F2F4F6"/>
		<stop  offset="0.8209" style="stop-color:#E1E7E9"/>
		<stop  offset="1" style="stop-color:#CFD8DC"/>
	</radialGradient>
	<rect style="fill:url(#SVGID_1_);" width="500" height="500"/>
</g>
<g id="OBJECTS">
	<g>
		<g>
			
				<linearGradient id="SVGID_00000057846988652752802610000016727734263774907010_" gradientUnits="userSpaceOnUse" x1="31.9045" y1="287.8482" x2="208.598" y2="287.8482">
				<stop  offset="0" style="stop-color:#008AFF"/>
				<stop  offset="1" style="stop-color:#8A4CFF"/>
			</linearGradient>
			<path style="fill:url(#SVGID_00000057846988652752802610000016727734263774907010_);" d="M208.598,258.303
				c-34.121-14.894-99.395-3.495-124.014,8.626c0,0,28.547-5.156,54.766,0.307c24.488,5.102,33.751,18.397,19.275,17.608
				s-53.509-15.147-84.139-16.394c-30.63-1.247-42.582,8.498-42.582,8.498s28.979-8.872,60.763,4.899
				c20.089,8.704-11.652,11.249-31.52,1.681c0,0,9.763,18.24,39.2,17.225c29.437-1.016,41.514-4.984,45.632,0.139
				s-12.57,10.059-29.063,3.792c0,0,22.011,26.01,80.2,18.389c4.283-0.561,8.1-1.455,11.482-2.626V258.303z M153.061,298.614
				c-23.686-13.208-45.395-10.646-45.395-10.646c5.998-2.681,24.673-4.869,42.932,1.152c21.636,7.134,38.229-8.673,18.706-21.298
				c-7.938-5.134-20.313-6.278-33.848-5.489c0,0,16.895-8.679,38.279-2.23c21.384,6.449,32.638,24.789,27.626,37.097
				C198.472,304.295,184.864,316.347,153.061,298.614z"/>
			
				<linearGradient id="SVGID_00000041279307186953431320000010901737755017167548_" gradientUnits="userSpaceOnUse" x1="277.2469" y1="287.8482" x2="453.9404" y2="287.8482" gradientTransform="matrix(-1 0 0 1 745.3424 0)">
				<stop  offset="0" style="stop-color:#008AFF"/>
				<stop  offset="1" style="stop-color:#8A4CFF"/>
			</linearGradient>
			<path style="fill:url(#SVGID_00000041279307186953431320000010901737755017167548_);" d="M291.402,320.447
				c3.382,1.17,7.198,2.065,11.482,2.626c58.189,7.621,80.2-18.389,80.2-18.389c-16.493,6.267-33.181,1.331-29.063-3.792
				s16.195-1.155,45.632-0.139c29.437,1.016,39.2-17.225,39.2-17.225c-19.868,9.568-51.61,7.023-31.52-1.681
				c31.784-13.771,60.763-4.899,60.763-4.899s-11.952-9.745-42.582-8.498c-30.63,1.247-69.663,15.605-84.139,16.394
				s-5.213-12.506,19.275-17.608c26.219-5.463,54.766-0.307,54.766-0.307c-24.619-12.12-89.893-23.519-124.014-8.626V320.447z
				 M298.639,297.199c-5.012-12.308,6.242-30.648,27.626-37.097c21.384-6.449,38.279,2.23,38.279,2.23
				c-13.535-0.789-25.909,0.356-33.848,5.489c-19.523,12.625-2.93,28.432,18.706,21.298c18.259-6.02,36.934-3.833,42.932-1.152
				c0,0-21.709-2.562-45.395,10.646C315.136,316.347,301.528,304.295,298.639,297.199z"/>
		</g>
		<g>
			
				<linearGradient id="SVGID_00000110447080520799832200000009781827227793982347_" gradientUnits="userSpaceOnUse" x1="198.7691" y1="185.5359" x2="301.231" y2="185.5359">
				<stop  offset="0" style="stop-color:#263238"/>
				<stop  offset="0.4888" style="stop-color:#35464E"/>
				<stop  offset="1" style="stop-color:#455A64"/>
			</linearGradient>
			<path style="fill:url(#SVGID_00000110447080520799832200000009781827227793982347_);" d="M279.325,133.012
				c-3.658,14.694-8.47,24.077-13.083,30.321c2.726-10.497,4.075-23.262,4.531-34.437c-6.351-2.342-13.375-3.536-20.773-3.536
				c-7.397,0-14.422,1.195-20.773,3.536c0.456,11.175,1.805,23.94,4.531,34.437c-4.613-6.244-9.425-15.626-13.083-30.321
				c-13.24,8.075-21.906,22.471-21.906,42.89c0,33.234,22.937,69.81,51.231,69.81c28.294,0,51.231-36.575,51.231-69.81
				C301.231,155.483,292.565,141.087,279.325,133.012z M267.581,231.215c-5.602,2.495-11.496,3.827-17.581,3.827
				s-11.979-1.332-17.581-3.827c-11.568-5.152-20.387-14.94-24.989-26.739c-3.614-9.265-5.613-19.335-5.494-29.068
				c0.009-0.004,0.004-0.001,0.013-0.005c13.375,13.782,30.014,21.956,48.05,21.956s34.675-8.173,48.05-21.956
				c0.009,0.004,0.004,0.001,0.013,0.005c0.119,9.732-1.88,19.803-5.494,29.068C287.968,216.274,279.149,226.062,267.581,231.215z"
				/>
			
				<linearGradient id="SVGID_00000109747295223047059480000012836326304792150193_" gradientUnits="userSpaceOnUse" x1="208.6949" y1="208.8151" x2="291.3051" y2="208.8151">
				<stop  offset="0" style="stop-color:#008AFF"/>
				<stop  offset="1" style="stop-color:#8A4CFF"/>
			</linearGradient>
			<path style="fill:url(#SVGID_00000109747295223047059480000012836326304792150193_);" d="M250,200.311
				c-15.298,0-29.503-6.113-41.305-16.559c0.218,6.136,1.307,12.364,3.128,18.328c4.372,14.321,14.306,25.79,27.189,30.018
				c3.557,1.167,7.23,1.779,10.989,1.779s7.432-0.612,10.989-1.779c12.883-4.229,22.817-15.697,27.189-30.018
				c1.821-5.964,2.91-12.192,3.128-18.328C279.503,194.198,265.298,200.311,250,200.311z M226.243,221.187
				c-6.505-7.833-11.167-18.142-12.464-28.387c-0.025-0.198-0.039-0.389-0.061-0.586c1.984,1.587,4.031,3.025,6.13,4.306
				c0.214,8.524,2.569,17.265,6.472,24.727C226.294,221.226,226.268,221.207,226.243,221.187z"/>
			<g>
				<g>
					
						<linearGradient id="SVGID_00000081634865260134164240000012839709550559460740_" gradientUnits="userSpaceOnUse" x1="255.2287" y1="178.7286" x2="294.1951" y2="178.7286">
						<stop  offset="0" style="stop-color:#FFFFFF"/>
						<stop  offset="1" style="stop-color:#ECEFF1"/>
					</linearGradient>
					<path style="opacity:0.19;fill:url(#SVGID_00000081634865260134164240000012839709550559460740_);" d="M294.18,166.653
						c-10.877,11.208-24.342,17.966-38.951,18.299v5.853c14.697-0.496,29.854-10.572,38.966-23.458
						C294.195,167.112,294.183,166.885,294.18,166.653z"/>
					
						<linearGradient id="SVGID_00000003809465573663425250000012630245579129598132_" gradientUnits="userSpaceOnUse" x1="207.2253" y1="178.7286" x2="246.1917" y2="178.7286">
						<stop  offset="0" style="stop-color:#FFFFFF"/>
						<stop  offset="1" style="stop-color:#ECEFF1"/>
					</linearGradient>
					<path style="opacity:0.19;fill:url(#SVGID_00000003809465573663425250000012630245579129598132_);" d="M207.24,166.653
						c10.877,11.208,24.342,17.966,38.951,18.299v5.853c-14.697-0.496-29.854-10.572-38.966-23.458
						C207.225,167.112,207.237,166.885,207.24,166.653z"/>
				</g>
			</g>
			
				<linearGradient id="SVGID_00000028287525239595765480000016153826797931851667_" gradientUnits="userSpaceOnUse" x1="240.2165" y1="239.992" x2="259.7835" y2="239.992">
				<stop  offset="0" style="stop-color:#FFFFFF"/>
				<stop  offset="1" style="stop-color:#ECEFF1"/>
			</linearGradient>
			<path style="opacity:0.19;fill:url(#SVGID_00000028287525239595765480000016153826797931851667_);" d="M241.497,242.369
				c2.782,0.643,5.618,0.989,8.503,0.989s5.721-0.346,8.503-0.989l1.281-5.743c-3.19,0.852-6.455,1.307-9.783,1.307
				s-6.594-0.455-9.783-1.307L241.497,242.369z"/>
		</g>
		<g>
			<g>
				<g>
					
						<linearGradient id="SVGID_00000100342358387904683430000011386191122639154562_" gradientUnits="userSpaceOnUse" x1="319.1936" y1="197.3643" x2="343.4485" y2="197.3643">
						<stop  offset="0" style="stop-color:#263238"/>
						<stop  offset="1" style="stop-color:#455A64"/>
					</linearGradient>
					<polygon style="fill:url(#SVGID_00000100342358387904683430000011386191122639154562_);" points="319.194,210.432 
						322.378,193.911 343.449,184.296 328.27,197.364 327.13,209.632 					"/>
					<g>
						
							<linearGradient id="SVGID_00000115488619149421687520000007761655524183117737_" gradientUnits="userSpaceOnUse" x1="333.6486" y1="176.7166" x2="377.3829" y2="176.7166">
							<stop  offset="0" style="stop-color:#263238"/>
							<stop  offset="1" style="stop-color:#455A64"/>
						</linearGradient>
						
							<circle style="fill:url(#SVGID_00000115488619149421687520000007761655524183117737_);" cx="355.516" cy="176.717" r="21.867"/>
						<path style="opacity:0.46;fill:#546E7A;" d="M335.334,177.981c0-12.077,9.79-21.867,21.867-21.867
							c4.539,0,8.754,1.383,12.248,3.75c-3.784-3.132-8.639-5.015-13.934-5.015c-12.077,0-21.867,9.79-21.867,21.867
							c0,7.538,3.815,14.185,9.619,18.117C338.422,190.822,335.334,184.762,335.334,177.981z"/>
						<circle style="fill:#263238;" cx="356.34" cy="177.541" r="18.442"/>
						<circle style="opacity:0.46;fill:#546E7A;" cx="355.516" cy="176.717" r="17.618"/>
						
							<linearGradient id="SVGID_00000170253763213063543650000017247455207394883456_" gradientUnits="userSpaceOnUse" x1="344.3229" y1="178.8484" x2="361.8951" y2="196.4207" gradientTransform="matrix(-0.7071 0.7071 -0.7071 -0.7071 732.6899 54.5192)">
							<stop  offset="0" style="stop-color:#FFFFFF"/>
							<stop  offset="1" style="stop-color:#ECEFF1"/>
						</linearGradient>
						<path style="opacity:0.19;fill:url(#SVGID_00000170253763213063543650000017247455207394883456_);" d="M356.262,177.463
							c4.621-4.621,6.773-10.773,6.46-16.823c-6.477-2.902-14.347-1.698-19.664,3.619c-5.317,5.317-6.521,13.187-3.619,19.664
							C345.488,184.236,351.641,182.084,356.262,177.463z"/>
					</g>
				</g>
				<g>
					
						<linearGradient id="SVGID_00000130641264378522282670000001887971110157394850_" gradientUnits="userSpaceOnUse" x1="111.3741" y1="197.3643" x2="135.629" y2="197.3643" gradientTransform="matrix(-1 0 0 1 293.1046 0)">
						<stop  offset="0" style="stop-color:#263238"/>
						<stop  offset="1" style="stop-color:#455A64"/>
					</linearGradient>
					<polygon style="fill:url(#SVGID_00000130641264378522282670000001887971110157394850_);" points="181.731,210.432 
						178.547,193.911 157.476,184.296 172.654,197.364 173.794,209.632 					"/>
					<g>
						
							<linearGradient id="SVGID_00000051363295468189818460000016950693752117921446_" gradientUnits="userSpaceOnUse" x1="125.829" y1="176.7166" x2="169.5633" y2="176.7166" gradientTransform="matrix(-1 0 0 1 293.1046 0)">
							<stop  offset="0" style="stop-color:#263238"/>
							<stop  offset="1" style="stop-color:#455A64"/>
						</linearGradient>
						
							<circle style="fill:url(#SVGID_00000051363295468189818460000016950693752117921446_);" cx="145.408" cy="176.717" r="21.867"/>
						<path style="opacity:0.46;fill:#546E7A;" d="M165.59,177.981c0-12.077-9.79-21.867-21.867-21.867
							c-4.539,0-8.754,1.383-12.248,3.75c3.784-3.132,8.639-5.015,13.934-5.015c12.077,0,21.867,9.79,21.867,21.867
							c0,7.538-3.815,14.185-9.619,18.117C162.502,190.822,165.59,184.762,165.59,177.981z"/>
						<circle style="fill:#263238;" cx="144.584" cy="177.541" r="18.442"/>
						<circle style="opacity:0.46;fill:#546E7A;" cx="145.408" cy="176.717" r="17.618"/>
						
							<linearGradient id="SVGID_00000150803483016678702790000010665981889650412960_" gradientUnits="userSpaceOnUse" x1="141.3168" y1="178.8484" x2="158.8891" y2="196.4207" gradientTransform="matrix(0.7071 -0.7071 -0.7071 -0.7071 166.758 410.3438)">
							<stop  offset="0" style="stop-color:#FFFFFF"/>
							<stop  offset="1" style="stop-color:#ECEFF1"/>
						</linearGradient>
						<path style="opacity:0.19;fill:url(#SVGID_00000150803483016678702790000010665981889650412960_);" d="M146.155,177.463
							c-4.621,4.621-10.773,6.773-16.823,6.46c-2.902-6.477-1.698-14.347,3.619-19.664c5.317-5.317,13.187-6.521,19.664-3.619
							C152.927,166.689,150.775,172.842,146.155,177.463z"/>
					</g>
				</g>
			</g>
			<path style="fill:#263238;" d="M250,306.477c-21.557,0-41.02,4.78-47.677,6.609c-1.432,0.393-2.433,1.809-2.433,3.433v18.589
				c0,2.57,2.408,4.28,4.54,3.228c8.079-3.988,25.958-11.535,45.571-11.535s37.491,7.547,45.571,11.535
				c2.132,1.052,4.54-0.658,4.54-3.228v-18.589c0-1.624-1-3.039-2.433-3.433C291.02,311.257,271.557,306.477,250,306.477z"/>
			<g style="opacity:0.46;">
				<path style="fill:#546E7A;" d="M250,318.24c-15.612,0-29.906,6.824-37.086,10.923c9.334-3.729,22.744-7.764,37.086-7.764
					c14.342,0,27.752,4.035,37.086,7.764C279.906,325.064,265.612,318.24,250,318.24z"/>
			</g>
			
				<linearGradient id="SVGID_00000113317346652899038090000008783254089752995502_" gradientUnits="userSpaceOnUse" x1="364.3703" y1="215.1366" x2="364.3703" y2="204.1277">
				<stop  offset="0" style="stop-color:#263238"/>
				<stop  offset="1" style="stop-color:#455A64"/>
			</linearGradient>
			
				<rect x="340.78" y="204.128" style="fill:url(#SVGID_00000113317346652899038090000008783254089752995502_);" width="47.181" height="11.009"/>
			<ellipse style="fill:#263238;" cx="387.961" cy="209.632" rx="2.359" ry="5.504"/>
			
				<linearGradient id="SVGID_00000152946903362618747120000008645387235006230927_" gradientUnits="userSpaceOnUse" x1="135.6297" y1="215.1366" x2="135.6297" y2="204.1277">
				<stop  offset="0" style="stop-color:#263238"/>
				<stop  offset="1" style="stop-color:#455A64"/>
			</linearGradient>
			<polygon style="fill:url(#SVGID_00000152946903362618747120000008645387235006230927_);" points="112.039,215.137 
				159.22,215.137 159.22,204.128 112.039,204.128 			"/>
			<ellipse style="fill:#263238;" cx="112.039" cy="209.632" rx="2.359" ry="5.504"/>
			<path style="opacity:0.46;fill:#546E7A;" d="M112.039,204.128c0,0,31.261,0.706,35.304,8.789h11.877v-8.789H112.039z"/>
			<path style="opacity:0.46;fill:#546E7A;" d="M387.816,204.128c0,0-31.261,0.706-35.304,8.789h-11.877v-8.789H387.816z"/>
			
				<linearGradient id="SVGID_00000144323078718605346520000012153242186391549846_" gradientUnits="userSpaceOnUse" x1="330.1712" y1="209.6321" x2="352.9856" y2="209.6321">
				<stop  offset="0" style="stop-color:#263238"/>
				<stop  offset="1" style="stop-color:#455A64"/>
			</linearGradient>
			<path style="fill:url(#SVGID_00000144323078718605346520000012153242186391549846_);" d="M349.726,202.136h-19.555v14.992h19.555
				c1.8,0,3.259-3.356,3.259-7.496C352.986,205.492,351.526,202.136,349.726,202.136z"/>
			
				<linearGradient id="SVGID_00000173851861593144517720000002704708144516186012_" gradientUnits="userSpaceOnUse" x1="326.912" y1="209.6321" x2="333.4304" y2="209.6321">
				<stop  offset="0" style="stop-color:#263238"/>
				<stop  offset="1" style="stop-color:#455A64"/>
			</linearGradient>
			
				<ellipse style="fill:url(#SVGID_00000173851861593144517720000002704708144516186012_);" cx="330.171" cy="209.632" rx="3.259" ry="7.496"/>
			<g>
				
					<linearGradient id="SVGID_00000057133142890965766200000012081029258140054919_" gradientUnits="userSpaceOnUse" x1="337.4638" y1="223.1663" x2="393.3994" y2="223.1663">
					<stop  offset="0" style="stop-color:#263238"/>
					<stop  offset="1" style="stop-color:#455A64"/>
				</linearGradient>
				<path style="fill:url(#SVGID_00000057133142890965766200000012081029258140054919_);" d="M393.399,229.204h-25.994
					c-3.805,0-7.453-1.511-10.144-4.202l-0.989-0.989H341.66c-2.318,0-4.196-1.879-4.196-4.196v-2.689h6.602v3.87h13.455
					l0.989,0.989c2.69,2.69,6.339,4.202,10.144,4.202h24.746V229.204z"/>
			</g>
			
				<linearGradient id="SVGID_00000033327156873236211970000005043354613939534982_" gradientUnits="userSpaceOnUse" x1="390.3846" y1="227.8837" x2="396.4141" y2="227.8837">
				<stop  offset="0" style="stop-color:#263238"/>
				<stop  offset="1" style="stop-color:#455A64"/>
			</linearGradient>
			<circle style="fill:url(#SVGID_00000033327156873236211970000005043354613939534982_);" cx="393.399" cy="227.884" r="3.015"/>
			
				<linearGradient id="SVGID_00000116929401381679311290000008949489439486423971_" gradientUnits="userSpaceOnUse" x1="147.0144" y1="209.6321" x2="169.8288" y2="209.6321">
				<stop  offset="0" style="stop-color:#263238"/>
				<stop  offset="1" style="stop-color:#455A64"/>
			</linearGradient>
			<path style="fill:url(#SVGID_00000116929401381679311290000008949489439486423971_);" d="M150.274,202.136h19.555v14.992h-19.555
				c-1.8,0-3.259-3.356-3.259-7.496C147.014,205.492,148.474,202.136,150.274,202.136z"/>
			
				<linearGradient id="SVGID_00000067930067509549876020000013960469683178344083_" gradientUnits="userSpaceOnUse" x1="166.5696" y1="209.6321" x2="173.088" y2="209.6321">
				<stop  offset="0" style="stop-color:#263238"/>
				<stop  offset="1" style="stop-color:#455A64"/>
			</linearGradient>
			
				<ellipse style="fill:url(#SVGID_00000067930067509549876020000013960469683178344083_);" cx="169.829" cy="209.632" rx="3.259" ry="7.496"/>
			<g>
				
					<linearGradient id="SVGID_00000098942322309275061570000011241250348108261031_" gradientUnits="userSpaceOnUse" x1="106.6006" y1="223.1663" x2="162.5362" y2="223.1663">
					<stop  offset="0" style="stop-color:#455A64"/>
					<stop  offset="1" style="stop-color:#263238"/>
				</linearGradient>
				<path style="fill:url(#SVGID_00000098942322309275061570000011241250348108261031_);" d="M106.601,229.204h25.994
					c3.805,0,7.453-1.511,10.144-4.202l0.989-0.989h14.612c2.318,0,4.196-1.879,4.196-4.196v-2.689h-6.602v3.87h-13.455
					l-0.989,0.989c-2.69,2.69-6.339,4.202-10.144,4.202h-24.746V229.204z"/>
			</g>
			
				<linearGradient id="SVGID_00000089543763228779071820000016777715386757192623_" gradientUnits="userSpaceOnUse" x1="103.5859" y1="227.8837" x2="109.6154" y2="227.8837">
				<stop  offset="0" style="stop-color:#263238"/>
				<stop  offset="1" style="stop-color:#455A64"/>
			</linearGradient>
			<circle style="fill:url(#SVGID_00000089543763228779071820000016777715386757192623_);" cx="106.601" cy="227.884" r="3.015"/>
			
				<linearGradient id="SVGID_00000024704607778043468100000007383599981036791228_" gradientUnits="userSpaceOnUse" x1="250" y1="238.3944" x2="250" y2="206.6175">
				<stop  offset="0" style="stop-color:#263238"/>
				<stop  offset="1" style="stop-color:#455A64"/>
			</linearGradient>
			<path style="fill:url(#SVGID_00000024704607778043468100000007383599981036791228_);" d="M313.19,206.618
				c-11.829,0-19.039,6.615-26.013,13.013c-7.138,6.549-13.88,12.734-25.785,12.734h-22.785c-11.905,0-18.647-6.186-25.785-12.734
				c-6.973-6.398-14.184-13.013-26.013-13.013h-14.033c-1.665,0-3.015,1.35-3.015,3.015l0,0c0,1.665,1.35,3.015,3.015,3.015h14.033
				c9.871,0,15.744,5.389,22.546,11.629c7.213,6.618,15.389,14.118,29.252,14.118h22.785c13.862,0,22.038-7.5,29.252-14.118
				c6.802-6.24,12.676-11.629,22.546-11.629h14.033c1.665,0,3.015-1.35,3.015-3.015l0,0c0-1.665-1.35-3.015-3.015-3.015H313.19z"/>
			<path style="opacity:0.46;fill:#546E7A;" d="M172.776,209.029h14.033c11.829,0,19.039,6.615,26.013,13.013
				c7.138,6.549,13.88,12.734,25.785,12.734h22.785c11.905,0,18.647-6.186,25.785-12.734c6.973-6.398,14.184-13.013,26.013-13.013
				h14.033c1.236,0,2.295,0.745,2.76,1.809c0.162-0.37,0.255-0.776,0.255-1.206c0-1.665-1.35-3.015-3.015-3.015H313.19
				c-11.829,0-19.039,6.615-26.013,13.013c-7.138,6.549-13.88,12.734-25.785,12.734h-22.785c-11.905,0-18.647-6.186-25.785-12.734
				c-6.973-6.398-14.184-13.013-26.013-13.013h-14.033c-1.665,0-3.015,1.35-3.015,3.015c0,0.429,0.093,0.836,0.255,1.206
				C170.482,209.774,171.541,209.029,172.776,209.029z"/>
			<g>
				<g>
					
						<linearGradient id="SVGID_00000084519816095878865550000008921328097334422957_" gradientUnits="userSpaceOnUse" x1="253.2377" y1="235.0782" x2="275.327" y2="235.0782">
						<stop  offset="0" style="stop-color:#263238"/>
						<stop  offset="1" style="stop-color:#455A64"/>
					</linearGradient>
					<path style="fill:url(#SVGID_00000084519816095878865550000008921328097334422957_);" d="M264.282,219.939
						c-6.1,0-11.045,1.35-11.045,3.015v27.263h22.089v-27.263C275.327,221.289,270.382,219.939,264.282,219.939z"/>
					<path style="opacity:0.46;fill:#546E7A;" d="M260.14,219.939c-0.71,0-1.403,0.02-2.076,0.055
						c5.106,0.265,8.968,1.489,8.968,2.96v27.263h4.152v-27.263C271.185,221.289,266.24,219.939,260.14,219.939z"/>
					<path style="fill:#263238;" d="M264.282,223.85c-6.1,0-11.045,1.35-11.045,3.015v2.281c0-1.665,4.945-3.015,11.045-3.015
						c6.1,0,11.045,1.35,11.045,3.015v-2.281C275.327,225.2,270.382,223.85,264.282,223.85z"/>
				</g>
				<g>
					
						<linearGradient id="SVGID_00000033335984556604218160000000192730424310575292_" gradientUnits="userSpaceOnUse" x1="224.673" y1="235.0782" x2="246.7623" y2="235.0782">
						<stop  offset="0" style="stop-color:#263238"/>
						<stop  offset="1" style="stop-color:#455A64"/>
					</linearGradient>
					<path style="fill:url(#SVGID_00000033335984556604218160000000192730424310575292_);" d="M235.718,219.939
						c-6.1,0-11.045,1.35-11.045,3.015v27.263h22.089v-27.263C246.762,221.289,241.817,219.939,235.718,219.939z"/>
					<path style="opacity:0.46;fill:#546E7A;" d="M231.576,219.939c-0.71,0-1.403,0.02-2.076,0.055
						c5.106,0.265,8.968,1.489,8.968,2.96v27.263h4.152v-27.263C242.62,221.289,237.675,219.939,231.576,219.939z"/>
					<path style="fill:#263238;" d="M235.718,223.85c-6.1,0-11.045,1.35-11.045,3.015v2.281c0-1.665,4.945-3.015,11.045-3.015
						c6.1,0,11.045,1.35,11.045,3.015v-2.281C246.762,225.2,241.817,223.85,235.718,223.85z"/>
				</g>
			</g>
			
				<linearGradient id="SVGID_00000088108080897821491880000014383421997537079217_" gradientUnits="userSpaceOnUse" x1="199.1982" y1="274.1222" x2="214.5698" y2="274.1222">
				<stop  offset="0" style="stop-color:#263238"/>
				<stop  offset="1" style="stop-color:#455A64"/>
			</linearGradient>
			<path style="fill:url(#SVGID_00000088108080897821491880000014383421997537079217_);" d="M206.884,239.063
				c-4.245,0-7.686,1.056-7.686,2.359v67.76h6.588c4.851,0,8.783-3.932,8.783-8.783v-58.977
				C214.57,240.119,211.129,239.063,206.884,239.063z"/>
			<path style="opacity:0.46;fill:#546E7A;" d="M293.116,239.063c-4.245,0-7.686,1.056-7.686,2.359v0.729
				c1.373-0.393,3.209-0.635,5.233-0.635c4.245,0,7.686,1.056,7.686,2.359c0,0-0.029,39.52-0.029,59.434
				c0,19.837-6.301,5.873-6.301,5.873h8.783v-67.76C300.802,240.119,297.361,239.063,293.116,239.063z"/>
			
				<linearGradient id="SVGID_00000144314559116935594180000007288014735000682410_" gradientUnits="userSpaceOnUse" x1="285.4302" y1="274.1222" x2="300.8018" y2="274.1222">
				<stop  offset="0" style="stop-color:#263238"/>
				<stop  offset="1" style="stop-color:#455A64"/>
			</linearGradient>
			<path style="fill:url(#SVGID_00000144314559116935594180000007288014735000682410_);" d="M293.116,239.063
				c-4.245,0-7.686,1.056-7.686,2.359v58.977c0,4.851,3.932,8.783,8.783,8.783h6.588v-67.76
				C300.802,240.119,297.361,239.063,293.116,239.063z"/>
			<path style="opacity:0.46;fill:#546E7A;" d="M206.884,239.063c-4.245,0-7.686,1.056-7.686,2.359v0.729
				c1.373-0.393,3.209-0.635,5.233-0.635c4.245,0,7.686,1.056,7.686,2.359c0,0-0.029,38.52-0.029,58.434
				c0,19.837-6.301,6.873-6.301,6.873h0c4.851,0,8.783-3.932,8.783-8.783v-58.977C214.57,240.119,211.129,239.063,206.884,239.063z"
				/>
			<path style="opacity:0.46;fill:#546E7A;" d="M293.116,239.063c-4.245,0-7.686,1.056-7.686,2.359v0.729
				c1.373-0.393,3.209-0.635,5.233-0.635c4.245,0,7.686,1.056,7.686,2.359c0,0-0.029,40.52-0.029,60.434
				c0,19.837-6.301,4.873-6.301,4.873h8.783v-67.76C300.802,240.119,297.361,239.063,293.116,239.063z"/>
			<g>
				
					<linearGradient id="SVGID_00000150813543503984191810000003891594495148310185_" gradientUnits="userSpaceOnUse" x1="194.8981" y1="256.2669" x2="305.1019" y2="256.2669">
					<stop  offset="0" style="stop-color:#263238"/>
					<stop  offset="1" style="stop-color:#455A64"/>
				</linearGradient>
				<path style="fill:url(#SVGID_00000150813543503984191810000003891594495148310185_);" d="M250,244.791
					c-23.704,0-45.106,4.78-52.427,6.609c-1.575,0.394-2.675,1.809-2.675,3.433v9.368c0,2.57,2.647,4.28,4.992,3.228
					c8.884-3.988,28.544-11.535,50.11-11.535s41.226,7.547,50.11,11.535c2.344,1.052,4.992-0.658,4.992-3.228v-9.368
					c0-1.624-1.1-3.039-2.675-3.433C295.106,249.571,273.704,244.791,250,244.791z"/>
				<g>
					<path style="opacity:0.46;fill:#546E7A;" d="M194.898,257.855c0,0,25.791-13.064,55.102-13.064
						c-23.704,0-45.106,4.78-52.427,6.609c-1.575,0.394-2.675,1.809-2.675,3.433V257.855z"/>
					<path style="opacity:0.46;fill:#546E7A;" d="M250,244.791c29.311,0,55.102,13.064,55.102,13.064v-3.023
						c0-1.624-1.1-3.039-2.675-3.433C295.106,249.571,273.704,244.791,250,244.791z"/>
				</g>
			</g>
			
				<linearGradient id="SVGID_00000109023802301490353480000000496947299206200488_" gradientUnits="userSpaceOnUse" x1="194.8981" y1="303.9352" x2="305.1019" y2="303.9352">
				<stop  offset="0" style="stop-color:#263238"/>
				<stop  offset="1" style="stop-color:#455A64"/>
			</linearGradient>
			<path style="fill:url(#SVGID_00000109023802301490353480000000496947299206200488_);" d="M250,287.848
				c-23.704,0-45.106,4.78-52.427,6.609c-1.575,0.393-2.675,1.809-2.675,3.433v18.589c0,2.57,2.647,4.28,4.992,3.228
				c8.884-3.988,28.544-11.535,50.11-11.535s41.226,7.547,50.11,11.535c2.344,1.052,4.992-0.658,4.992-3.228V297.89
				c0-1.624-1.1-3.039-2.675-3.433C295.106,292.628,273.704,287.848,250,287.848z"/>
			<g>
				<path style="opacity:0.46;fill:#546E7A;" d="M194.898,303.368c0,0,25.791-15.519,55.102-15.519
					c-23.704,0-45.106,4.78-52.427,6.609c-1.575,0.393-2.675,1.809-2.675,3.433V303.368z"/>
				<path style="opacity:0.46;fill:#546E7A;" d="M250,287.848c29.311,0,55.102,15.519,55.102,15.519v-5.478
					c0-1.624-1.1-3.039-2.675-3.433C295.106,292.628,273.704,287.848,250,287.848z"/>
			</g>
			<path style="fill:#263238;" d="M250,287.848c-10.401,0-20.357,0.92-28.877,2.108c5.876,9.813,16.607,16.384,28.877,16.384
				s23.001-6.571,28.877-16.384C270.357,288.769,260.401,287.848,250,287.848z"/>
			
				<linearGradient id="SVGID_00000042012027363366304480000010822110373378254783_" gradientUnits="userSpaceOnUse" x1="218.7117" y1="270.351" x2="281.2883" y2="270.351">
				<stop  offset="0" style="stop-color:#263238"/>
				<stop  offset="1" style="stop-color:#455A64"/>
			</linearGradient>
			<circle style="fill:url(#SVGID_00000042012027363366304480000010822110373378254783_);" cx="250" cy="270.351" r="31.288"/>
			<path style="opacity:0.46;fill:#546E7A;" d="M221.123,272.16c0-17.28,14.008-31.288,31.288-31.288
				c6.494,0,12.525,1.979,17.525,5.366c-5.414-4.481-12.361-7.175-19.937-7.175c-17.28,0-31.288,14.008-31.288,31.288
				c0,10.786,5.458,20.297,13.763,25.922C225.541,290.534,221.123,281.863,221.123,272.16z"/>
			<circle style="fill:#263238;" cx="251.179" cy="271.53" r="26.387"/>
			<circle style="opacity:0.46;fill:#546E7A;" cx="250" cy="270.351" r="25.208"/>
			
				<linearGradient id="SVGID_00000055674921289134689760000001237804667994686125_" gradientUnits="userSpaceOnUse" x1="235.0217" y1="271.8593" x2="260.1648" y2="297.0023" gradientTransform="matrix(-0.7071 0.7071 -0.7071 -0.7071 618.7728 288.9741)">
				<stop  offset="0" style="stop-color:#FFFFFF"/>
				<stop  offset="1" style="stop-color:#ECEFF1"/>
			</linearGradient>
			<path style="opacity:0.19;fill:url(#SVGID_00000055674921289134689760000001237804667994686125_);" d="M251.068,271.419
				c6.612-6.612,9.691-15.415,9.244-24.071c-9.268-4.152-20.528-2.429-28.136,5.179s-9.331,18.868-5.179,28.136
				C235.653,281.11,244.456,278.03,251.068,271.419z"/>
		</g>
	</g>
</g>
<g id="TEXTS">
	<g>
		<g>
			<path style="fill:#35464E;" d="M116.994,375.511c0-15.804,0-31.607,0-47.411c4.197,1.208,8.407,2.358,12.628,3.451
				c3.397,0.881,5.883,2.252,7.447,4.099c1.565,1.852,2.365,4.435,2.393,7.82c0.005,0.607,0.01,1.213,0.015,1.82
				c0.016,1.954-0.368,3.471-1.151,4.577c-0.784,1.104-1.987,1.745-3.607,1.911c2.125,0.779,3.558,2.081,4.296,3.908
				c0.737,1.83,1.118,3.976,1.139,6.473c0.022,2.686-0.244,5.014-0.801,7.013c-0.558,1.998-1.585,3.552-3.085,4.676
				c-1.499,1.121-3.642,1.701-6.425,1.696C125.559,375.532,121.277,375.522,116.994,375.511z M126.156,347.541
				c0.64,0.106,1.28,0.212,1.92,0.317c0.871,0.142,1.431-0.085,1.677-0.676c0.246-0.592,0.366-1.326,0.362-2.208
				c-0.008-1.471-0.015-2.942-0.023-4.413c-0.008-1.411-0.676-2.262-2.006-2.558c-0.656-0.145-1.312-0.292-1.967-0.44
				C126.131,340.89,126.144,344.215,126.156,347.541z M127.17,367.669c2.454,0.112,3.675-0.908,3.663-3.056
				c-0.01-1.822-0.02-3.644-0.029-5.466c-0.007-1.242-0.212-2.244-0.618-3.013c-0.405-0.768-1.161-1.223-2.266-1.359
				c-0.579-0.071-1.159-0.143-1.738-0.215c0.016,4.338,0.032,8.676,0.048,13.014C126.624,367.626,126.937,367.657,127.17,367.669z"
				/>
			<path style="fill:#35464E;" d="M154.707,375.941c-3.789,0.003-6.696-0.935-8.717-2.911c-2.021-1.968-3.046-4.867-3.08-8.6
				c-0.06-6.467-0.119-12.934-0.179-19.401c-0.032-3.5,0.928-5.968,2.878-7.332c1.951-1.37,4.823-1.594,8.627-0.81
				c3.804,0.784,6.71,2.17,8.711,4.138c2.002,1.972,3.025,4.461,3.068,7.554c0.08,5.724,0.16,11.448,0.24,17.173
				c0.047,3.298-0.919,5.783-2.897,7.531C161.381,375.026,158.496,375.938,154.707,375.941z M154.703,368.884
				c1.435,0.05,2.139-1.037,2.111-3.261c-0.077-6.168-0.154-12.336-0.231-18.504c-0.023-1.864-0.733-2.911-2.127-3.148
				c-1.573-0.267-2.348,0.574-2.325,2.532c0.073,6.307,0.146,12.614,0.219,18.92c0.014,1.206,0.203,2.078,0.568,2.613
				C153.283,368.573,153.878,368.853,154.703,368.884z"/>
			<path style="fill:#35464E;" d="M170.219,375.619c-0.17-11.832-0.34-23.664-0.51-35.496c4.845,0.823,9.699,1.571,14.561,2.244
				c2.431,0.338,4.276,0.959,5.531,1.869c1.255,0.911,2.104,2.057,2.547,3.45c0.443,1.394,0.677,2.994,0.704,4.809
				c0.025,1.755-0.283,3.129-0.925,4.132c-0.642,1.004-1.869,1.651-3.68,1.935c1.496,0.314,2.552,0.889,3.167,1.727
				c0.615,0.839,0.931,1.888,0.949,3.158c0.059,4.067,0.118,8.133,0.177,12.2c-3.116-0.004-6.232-0.007-9.347-0.011
				c-0.065-4.367-0.13-8.733-0.195-13.1c-0.014-0.976-0.306-1.598-0.877-1.87c-0.57-0.272-1.484-0.451-2.742-0.538
				c0.077,5.168,0.154,10.335,0.231,15.503C176.612,375.628,173.416,375.624,170.219,375.619z M179.544,354.246
				c0.764,0.072,1.528,0.143,2.292,0.213c1.312,0.118,1.954-0.83,1.924-2.837c-0.02-1.301-0.176-2.169-0.47-2.607
				c-0.294-0.438-0.837-0.703-1.628-0.796c-0.738-0.087-1.475-0.175-2.212-0.265C179.482,350.051,179.513,352.149,179.544,354.246z"
				/>
			<path style="fill:#35464E;" d="M196.511,375.653c-0.15-10.6-0.3-21.199-0.449-31.799c3.267,0.371,6.537,0.708,9.809,1.012
				c1.527,5.053,3.05,10.034,4.568,14.954c-0.058-4.855-0.115-9.711-0.173-14.566c3.075,0.257,6.153,0.485,9.231,0.684
				c0.096,9.911,0.193,19.822,0.29,29.734c-3.089-0.002-6.178-0.004-9.267-0.006c-1.641-5.071-3.287-10.208-4.939-15.424
				c0.066,5.14,0.132,10.28,0.198,15.42C202.689,375.659,199.6,375.656,196.511,375.653z"/>
			<path style="fill:#35464E;" d="M240.989,375.679c-0.025-7.767-0.051-15.534-0.076-23.301c-1.892-0.031-3.783-0.07-5.675-0.119
				c-0.01-1.856-0.019-3.711-0.029-5.567c6.981,0.222,13.965,0.292,20.948,0.211c-0.004,1.842-0.007,3.684-0.011,5.527
				c-1.892,0.018-3.784,0.027-5.676,0.026c0,7.741,0,15.482,0,23.224C247.311,375.68,244.15,375.68,240.989,375.679z"/>
			<path style="fill:#35464E;" d="M270.056,375.941c-3.789,0-6.681-0.701-8.68-2.091c-1.999-1.391-2.997-3.397-2.99-6.027
				c0.012-4.561,0.025-9.122,0.037-13.683c0.007-2.467,1.011-4.348,3.019-5.67c2.007-1.322,4.945-2.041,8.807-2.2
				c3.862-0.16,6.787,0.323,8.777,1.523c1.987,1.198,2.969,3.075,2.943,5.625c-0.046,4.712-0.093,9.425-0.139,14.137
				c-0.027,2.718-1.051,4.809-3.067,6.245C276.745,375.237,273.844,375.942,270.056,375.941z M270.172,370.576
				c1.439-0.011,2.165-0.875,2.177-2.592c0.034-4.757,0.069-9.514,0.103-14.271c0.01-1.44-0.691-2.133-2.102-2.084
				c-1.592,0.055-2.393,0.809-2.401,2.272c-0.028,4.722-0.055,9.444-0.082,14.165c-0.005,0.902,0.17,1.547,0.528,1.936
				C268.751,370.391,269.344,370.582,270.172,370.576z"/>
			<path style="fill:#35464E;" d="M298.507,375.658c0.138-10.384,0.277-20.768,0.416-31.152c4.878-0.491,9.751-1.057,14.617-1.697
				c2.433-0.321,4.264-0.195,5.493,0.416c1.23,0.61,2.046,1.599,2.447,2.965c0.401,1.366,0.588,3.016,0.559,4.937
				c-0.027,1.858-0.378,3.375-1.051,4.536c-0.672,1.163-1.919,2.022-3.742,2.572c1.489,0.105,2.528,0.552,3.118,1.348
				c0.589,0.797,0.874,1.868,0.854,3.205c-0.064,4.281-0.128,8.563-0.191,12.844c-3.116,0.004-6.232,0.008-9.348,0.012
				c0.063-4.261,0.125-8.523,0.188-12.784c0.014-0.953-0.26-1.528-0.824-1.723c-0.563-0.196-1.474-0.256-2.734-0.185
				c-0.071,4.899-0.142,9.797-0.213,14.696C304.9,375.652,301.703,375.656,298.507,375.658z M308.444,355.366
				c0.765-0.059,1.531-0.119,2.296-0.18c1.314-0.103,1.985-1.145,2.014-3.119c0.019-1.277-0.113-2.101-0.395-2.467
				c-0.283-0.367-0.82-0.508-1.612-0.426c-0.739,0.076-1.478,0.151-2.217,0.224C308.502,351.388,308.473,353.377,308.444,355.366z"
				/>
			<path style="fill:#35464E;" d="M324.367,375.628c0.17-11.483,0.34-22.965,0.51-34.448c3.056-0.476,6.108-0.982,9.156-1.517
				c-0.169,11.984-0.338,23.968-0.507,35.952C330.473,375.62,327.42,375.624,324.367,375.628z"/>
			<path style="fill:#35464E;" d="M337.297,375.609c0.166-12.207,0.333-24.414,0.499-36.622c4.334-0.796,8.66-1.653,12.976-2.569
				c3.389-0.722,5.926-0.505,7.62,0.761c1.693,1.262,2.527,3.514,2.5,6.703c-0.055,6.465-0.11,12.931-0.164,19.396
				c-0.034,3.925-0.843,6.998-2.432,9.133c-1.589,2.142-4.352,3.172-8.285,3.176C345.773,375.594,341.535,375.602,337.297,375.609z
				 M346.914,368.798c0.547-0.021,1.095-0.041,1.642-0.062c1.74-0.064,2.618-0.798,2.633-2.201
				c0.075-6.763,0.149-13.525,0.224-20.288c0.014-1.311-0.187-2.121-0.601-2.427c-0.416-0.307-1.267-0.345-2.553-0.125
				c-0.348,0.06-0.697,0.119-1.046,0.178C347.112,352.181,347.013,360.489,346.914,368.798z"/>
			<path style="fill:#35464E;" d="M364.504,375.557c0.103-14.113,0.205-28.225,0.308-42.338c6.246-1.522,12.469-3.17,18.665-4.945
				c-0.001,3.042-0.002,6.084-0.002,9.126c-3.057,0.705-6.119,1.386-9.187,2.042c-0.011,2.906-0.023,5.813-0.034,8.719
				c2.952-0.479,5.901-0.975,8.846-1.489c-0.001,2.955-0.002,5.909-0.004,8.864c-2.956,0.358-5.915,0.704-8.876,1.038
				c-0.013,3.415-0.027,6.829-0.04,10.244c3.303-0.175,6.604-0.357,9.904-0.546c0,3.08,0,6.16,0,9.239
				C377.558,375.527,371.031,375.543,364.504,375.557z"/>
		</g>
	</g>
</g>
</svg>
